<?xml version="1.0" encoding="UTF-8"?>
<!-- Generator: visioncortex VTracer 0.6.3 -->
<svg version="1.1" xmlns="http://www.w3.org/2000/svg" width="512" height="512">
<path d="M0 0 C1.62 -0 1.62 -0 3.26 -0 C5.52 0.01 7.78 0.02 10.04 0.05 C13.49 0.09 16.93 0.09 20.38 0.09 C22.59 0.1 24.79 0.11 27 0.12 C28.02 0.13 29.04 0.13 30.09 0.13 C36.98 0.24 42.81 1.01 48.54 5.17 C49.06 5.72 49.58 6.28 50.12 6.84 C50.65 7.39 51.18 7.93 51.73 8.48 C52.27 9.18 52.81 9.88 53.37 10.59 C54.09 11.5 54.81 12.4 55.55 13.33 C58.89 19.34 57.78 26.86 57.62 33.53 C57.6 34.99 57.58 36.45 57.56 37.92 C57.52 41.48 57.45 45.03 57.37 48.59 C58.27 48.78 59.16 48.96 60.09 49.15 C83.89 54.11 106.97 63.23 127.37 76.59 C131.71 74.29 134.88 71.24 138.24 67.72 C145.27 60.54 151.5 54.73 162.05 54.22 C176.3 54.77 183.22 62.84 192.48 72.68 C194.81 75.05 197.3 77.17 199.85 79.3 C208.25 86.49 214.78 95.31 215.68 106.47 C215.28 116.77 210.33 122.4 203.37 129.59 C202.07 131.06 200.77 132.54 199.49 134.03 C197.52 136.31 195.52 138.49 193.37 140.59 C194.9 145.98 197.4 150.47 200.18 155.28 C206.48 166.22 211.14 177.28 215.05 189.28 C215.64 191.04 215.64 191.04 216.24 192.83 C218.18 198.71 219.98 204.56 221.37 210.59 C225.24 211.42 228.98 211.68 232.92 211.77 C233.95 211.79 234.98 211.82 236.04 211.84 C238.17 211.88 240.3 211.92 242.43 211.94 C250.16 212.14 255.64 213.4 261.57 218.49 C262.1 219.12 262.63 219.75 263.18 220.41 C263.72 221.03 264.27 221.66 264.82 222.3 C269.38 229.07 269.81 234.73 269.77 242.71 C269.77 243.77 269.77 244.83 269.77 245.92 C269.78 248.15 269.77 250.39 269.76 252.62 C269.74 256.02 269.76 259.42 269.78 262.81 C269.78 264.99 269.77 267.16 269.77 269.34 C269.77 270.35 269.78 271.36 269.78 272.4 C269.71 280.14 268.5 286.8 263.24 292.84 C262.46 293.78 262.46 293.78 261.67 294.73 C253.6 301.25 244.76 301.24 234.8 301.34 C233.4 301.37 232 301.4 230.59 301.43 C227.18 301.5 223.78 301.56 220.37 301.59 C220.18 303.35 220.18 303.35 219.98 305.13 C217.27 326.59 206.62 348.43 195.17 366.5 C193.12 369.43 193.12 369.43 193.37 372.59 C194.56 374.16 194.56 374.16 196.22 375.63 C196.82 376.21 197.42 376.79 198.04 377.38 C198.69 377.99 199.33 378.59 199.99 379.22 C208.13 387.13 214.57 394.13 215.68 405.91 C215.05 413.35 213.53 418.72 208.37 424.28 C207.56 425.15 206.76 426.01 205.93 426.91 C201.77 431.27 197.57 435.58 193.3 439.84 C192.46 440.7 191.61 441.56 190.74 442.45 C182.5 450.7 175 457.96 162.86 458.76 C151.17 458.28 143.77 450.47 136.28 442.36 C135.71 441.76 135.15 441.16 134.57 440.54 C133.82 439.73 133.82 439.73 133.06 438.9 C130.8 437.16 129.21 436.77 126.37 436.59 C123.99 437.49 123.99 437.49 121.69 439.02 C120.79 439.57 119.89 440.11 118.97 440.67 C118.01 441.26 117.05 441.86 116.05 442.47 C100.23 451.81 77.32 463.59 58.37 463.59 C58.38 464.16 58.39 464.73 58.4 465.32 C58.89 496.04 58.89 496.04 51.93 504.02 C45.24 510.76 38.56 512.91 29.25 513.06 C27.75 513.06 27.75 513.06 26.22 513.06 C25.17 513.07 24.11 513.08 23.03 513.09 C20.81 513.1 18.59 513.1 16.38 513.09 C13.01 513.09 9.64 513.14 6.27 513.18 C4.11 513.18 1.95 513.19 -0.22 513.19 C-1.21 513.2 -2.21 513.22 -3.23 513.24 C-10.34 513.17 -15.67 511.5 -21.63 507.59 C-24.32 504.84 -24.32 504.84 -26.2 502.03 C-26.84 501.1 -27.48 500.17 -28.14 499.21 C-30.66 494.79 -30.79 490.92 -30.95 485.86 C-31.01 483.92 -31.01 483.92 -31.08 481.93 C-31.12 480.57 -31.16 479.21 -31.2 477.84 C-31.24 476.46 -31.28 475.09 -31.33 473.71 C-31.43 470.34 -31.53 466.96 -31.63 463.59 C-32.98 463.32 -32.98 463.32 -34.36 463.05 C-41.47 461.58 -48.35 459.93 -55.2 457.53 C-55.95 457.28 -56.7 457.02 -57.48 456.76 C-61.24 455.47 -64.96 454.11 -68.63 452.59 C-68.11 448.44 -65.91 446.5 -63.01 443.61 C-62.53 443.13 -62.05 442.65 -61.55 442.15 C-59.97 440.56 -58.37 438.98 -56.77 437.41 C-55.67 436.3 -54.56 435.2 -53.45 434.09 C-51.13 431.77 -48.8 429.46 -46.47 427.15 C-43.49 424.2 -40.52 421.24 -37.55 418.27 C-34.71 415.44 -31.87 412.61 -29.02 409.78 C-28.48 409.24 -27.95 408.71 -27.39 408.15 C-25.85 406.62 -24.31 405.1 -22.77 403.57 C-21.46 402.27 -21.46 402.27 -20.13 400.95 C-17.7 398.66 -15.38 396.5 -12.63 394.59 C-8.84 394.82 -8.84 394.82 -6.48 395.21 C11.82 397.69 32.71 396.86 50.37 391.59 C51.1 391.38 51.82 391.17 52.58 390.94 C74.36 384.33 93.54 372.79 110.37 357.59 C111.11 356.93 111.84 356.26 112.61 355.57 C138.63 330.8 152.6 294.27 153.72 258.79 C153.97 235.78 148.34 214.18 138.37 193.59 C138.04 192.92 137.72 192.24 137.38 191.54 C132.74 182.01 127.21 173.68 120.37 165.59 C119.92 165.06 119.48 164.53 119.02 163.98 C96.53 137.17 62.55 120.67 27.98 116.82 C-8.91 113.67 -45.07 123.94 -74.26 146.84 C-97.29 166.56 -113.41 190.23 -121.63 219.59 C-121.96 220.75 -122.29 221.91 -122.62 223.1 C-124.74 231.14 -125.76 238.89 -125.77 247.21 C-125.77 248.25 -125.77 248.25 -125.77 249.31 C-125.77 250.77 -125.77 252.23 -125.76 253.69 C-125.76 255.89 -125.76 258.09 -125.77 260.29 C-125.77 261.72 -125.77 263.15 -125.77 264.58 C-125.76 266.53 -125.76 268.48 -125.77 270.43 C-125.69 272.67 -125.69 272.67 -124.99 275.09 C-124.31 278.22 -124.1 280.42 -124.63 283.59 C-127.86 288.53 -131.99 292.4 -136.24 296.45 C-137.45 297.64 -138.65 298.83 -139.86 300.02 C-143.02 303.15 -146.22 306.24 -149.42 309.32 C-152.04 311.85 -154.62 314.4 -157.21 316.96 C-160.3 320 -163.39 323.04 -166.49 326.07 C-167.08 326.65 -167.68 327.23 -168.28 327.82 C-169.96 329.45 -171.64 331.08 -173.32 332.7 C-173.82 333.18 -174.31 333.67 -174.82 334.16 C-177.1 336.35 -178.59 337.58 -181.63 338.59 C-185.42 332.22 -187.75 325.53 -189.88 318.47 C-190.14 317.62 -190.4 316.78 -190.66 315.9 C-192.16 310.79 -193.12 305.9 -193.63 300.59 C-194.5 300.61 -195.37 300.64 -196.26 300.66 C-199.51 300.73 -202.76 300.78 -206.01 300.81 C-207.41 300.83 -208.81 300.86 -210.21 300.9 C-219.9 301.13 -226.63 300.79 -234.32 294.34 C-241.4 285.93 -242.78 279.42 -242.87 268.61 C-242.88 267.65 -242.89 266.68 -242.9 265.68 C-242.91 263.63 -242.92 261.59 -242.93 259.54 C-242.94 257.46 -242.96 255.38 -242.99 253.3 C-243.03 250.28 -243.05 247.26 -243.06 244.24 C-243.08 243.32 -243.09 242.4 -243.11 241.46 C-243.09 233.42 -240.87 226.98 -236.45 220.28 C-228.34 212.54 -220.59 211.69 -209.63 211.59 C-208.89 211.59 -208.15 211.58 -207.39 211.57 C-202.8 211.53 -198.22 211.54 -193.63 211.59 C-193.48 210.6 -193.48 210.6 -193.32 209.59 C-192.14 202.54 -190.36 195.92 -188.07 189.16 C-187.55 187.6 -187.55 187.6 -187.01 186.02 C-182.16 171.97 -176.48 158.46 -167.97 146.22 C-166.34 143.01 -166.58 141.98 -167.63 138.59 C-169.13 136.62 -169.13 136.62 -171.09 134.89 C-171.79 134.22 -172.49 133.55 -173.21 132.86 C-174.69 131.48 -176.17 130.11 -177.64 128.74 C-183.29 123.34 -187.06 118.69 -188.16 110.81 C-188.04 95.96 -182.68 89.89 -172.63 79.59 C-171.89 78.82 -171.14 78.05 -170.38 77.26 C-167.89 74.69 -165.39 72.14 -162.88 69.59 C-162.08 68.77 -161.28 67.94 -160.45 67.09 C-153.11 59.71 -146.47 55.27 -135.82 54.22 C-124.43 54.68 -117.25 62.01 -109.63 69.59 C-108.87 70.34 -108.1 71.09 -107.32 71.87 C-105.74 73.43 -104.18 75.01 -102.63 76.59 C-99.16 75.27 -95.91 73.75 -92.64 71.98 C-78.63 64.5 -64.88 58.21 -49.76 53.28 C-48.98 53.03 -48.21 52.77 -47.42 52.51 C-42.14 50.85 -37.14 50.06 -31.63 49.59 C-31.62 48.76 -31.6 47.92 -31.59 47.06 C-31.53 43.92 -31.45 40.78 -31.37 37.64 C-31.32 35.63 -31.29 33.62 -31.25 31.61 C-30.99 22.23 -30.3 14.36 -23.55 7.32 C-16.6 1.07 -9.04 -0.15 0 0 Z " fill="#189F58" transform="translate(242.6328125,-0.59375)"/>
<path d="M0 0 C2.01 -0 4.03 -0.04 6.04 -0.08 C14.6 -0.1 22.94 0.46 30.72 4.37 C34.89 8.94 36.44 12.27 36.27 18.44 C34.12 29.87 17.63 41.55 9.57 49.4 C-2.12 60.8 -11.81 70.33 -13.72 87.25 C-13.29 96.41 -9.88 105.91 -3.28 112.37 C4.42 119.08 13.56 121.78 23.72 121.43 C35.36 119.95 43.03 113.76 50.73 105.47 C52.84 103.21 55.05 101.17 57.4 99.17 C63.22 94.16 68.52 88.6 73.88 83.11 C75.25 81.71 76.63 80.31 78.01 78.91 C78.82 78.09 79.63 77.26 80.46 76.41 C84.75 72.53 88.41 71.72 94.11 71.88 C99.06 72.81 101.78 75.42 104.72 79.37 C107.94 87.69 108.19 96.31 108.09 105.12 C108.08 106.35 108.07 107.58 108.06 108.85 C107.66 132.99 99.4 157.45 82.72 175.37 C82.15 175.98 81.59 176.59 81.01 177.21 C72.66 186.17 64.65 193.67 53.72 199.37 C52.75 199.91 51.79 200.45 50.8 201 C27.19 213.68 -2.2 216.04 -27.88 208.62 C-28.76 208.35 -29.64 208.09 -30.54 207.81 C-31.88 207.41 -31.88 207.41 -33.24 206.99 C-34.25 206.69 -34.25 206.69 -35.28 206.37 C-36.03 207.13 -36.78 207.88 -37.56 208.66 C-55.83 227.09 -74.13 245.51 -92.45 263.9 C-101.31 272.79 -110.16 281.69 -119 290.61 C-126.7 298.38 -134.42 306.15 -142.15 313.9 C-146.24 317.99 -150.33 322.1 -154.4 326.22 C-158.23 330.11 -162.09 333.98 -165.95 337.83 C-167.36 339.24 -168.77 340.66 -170.16 342.08 C-180.96 353.08 -191.7 362.3 -207.91 362.61 C-221.21 362.67 -232 359.53 -241.97 350.31 C-250.26 341.64 -254.68 330.51 -254.6 318.62 C-254.59 317.82 -254.59 317.02 -254.58 316.2 C-254.25 299.88 -245.85 290.47 -234.62 279.38 C-233.54 278.31 -232.47 277.23 -231.4 276.16 C-229.1 273.87 -226.8 271.58 -224.49 269.29 C-220.84 265.67 -217.2 262.04 -213.56 258.41 C-207.8 252.66 -202.03 246.92 -196.26 241.18 C-185.93 230.91 -175.61 220.63 -165.29 210.35 C-161.68 206.75 -158.06 203.15 -154.44 199.55 C-152.18 197.31 -149.93 195.06 -147.67 192.81 C-146.63 191.78 -145.59 190.75 -144.55 189.71 C-139.44 184.65 -134.43 179.57 -129.78 174.07 C-127.11 171.03 -124.14 168.32 -121.19 165.56 C-119.88 164.31 -118.57 163.05 -117.26 161.8 C-115.24 159.85 -113.2 157.91 -111.14 156 C-109.13 154.13 -107.16 152.23 -105.19 150.31 C-104.25 149.47 -104.25 149.47 -103.3 148.61 C-101.59 146.91 -100.34 145.54 -99.28 143.37 C-99.36 140.14 -100.25 137.41 -101.28 134.37 C-101.59 132.98 -101.88 131.59 -102.14 130.19 C-102.27 129.5 -102.4 128.81 -102.53 128.09 C-107.45 100.2 -103.27 71.08 -87.34 47.16 C-83.28 41.64 -78.84 36.48 -74.28 31.37 C-73.7 30.7 -73.12 30.03 -72.52 29.34 C-59.59 15.44 -41.39 6.98 -23.28 2.37 C-22.21 2.09 -22.21 2.09 -21.11 1.8 C-14.11 0.18 -7.18 -0 0 0 Z " fill="#B5B5B5" transform="translate(254.284912109375,149.62939453125)"/>
</svg>
